<svg width="125" height="110" viewBox="0 0 125 110" fill="none" xmlns="http://www.w3.org/2000/svg">
<path d="M44.9034 7.55094C47.5172 0.0263954 57.4504 -1.57078 62.2912 4.75513L80.5675 28.6382C81.5046 29.8628 82.1458 31.2875 82.441 32.801L90.8931 76.1345C92.1855 82.7606 86.6761 88.7371 79.967 87.987L23.2838 81.6499C15.9118 80.8257 11.9718 72.544 15.9831 66.3043L33.8562 38.5015C34.2839 37.8362 34.6311 37.1225 34.8907 36.3753L44.9034 7.55094Z" fill="url(#paint0_linear_0_1)"/>
<path d="M16.206 17.8011C18.5481 7.10383 33.9068 7.40997 35.8207 18.1921L41.9994 52.9999L47.2261 77.8267C48.6074 84.388 43.2672 90.4229 36.5866 89.8503L10.0882 87.579C3.66046 87.0281 -0.571365 80.6251 1.44125 74.4958L8.49966 52.9999L16.206 17.8011Z" fill="url(#paint1_linear_0_1)"/>
<path d="M83.2242 30.7846C82.6003 19.2639 98.755 16.0184 102.629 26.8861L119 72.8114L124.227 97.6382C125.608 104.199 120.268 110.234 113.587 109.662L87.0886 107.391C80.6609 106.84 76.4291 100.437 78.4417 94.3073L84.9141 74.5961C85.3014 73.4166 85.4657 72.1753 85.3986 70.9357L83.2242 30.7846Z" fill="url(#paint2_linear_0_1)"/>
<defs>
<linearGradient id="paint0_linear_0_1" x1="27" y1="35.5" x2="73.5" y2="41.5" gradientUnits="userSpaceOnUse">
<stop stop-color="#2D2C2C"/>
<stop offset="1" stop-color="#5B5B5B"/>
</linearGradient>
<linearGradient id="paint1_linear_0_1" x1="0.730962" y1="50.582" x2="47.231" y2="56.582" gradientUnits="userSpaceOnUse">
<stop stop-color="#2D2C2C"/>
<stop offset="1" stop-color="#5B5B5B"/>
</linearGradient>
<linearGradient id="paint2_linear_0_1" x1="71.2315" y1="74.8933" x2="117.731" y2="80.8933" gradientUnits="userSpaceOnUse">
<stop stop-color="#2D2C2C"/>
<stop offset="1" stop-color="#5B5B5B"/>
</linearGradient>
</defs>
</svg>
