<svg width="444" height="450" viewBox="0 0 444 450" fill="none" xmlns="http://www.w3.org/2000/svg">
<circle cx="222" cy="224" r="222" transform="rotate(-180 222 224)" fill="url(#paint0_radial_0_1)"/>
<path d="M79.7787 122.665C63.3291 132.719 37.4999 172 54.4736 226.074C62.0004 288 102 264 96.9825 234.328C92.021 204.99 141.728 166.729 147.123 138.607C150.5 121 109.5 104.5 79.7787 122.665Z" fill="#37946E"/>
<path d="M193.742 138.043C193.742 157.322 172.789 153.778 189.763 207.852C197.29 269.778 263.242 231.043 305.742 185.043C331.583 157.074 295.742 93.543 263.242 93.5429C229.909 93.5427 193.742 109.043 193.742 138.043Z" fill="#37946E"/>
<path d="M151.192 287.358C137.316 287.358 132.816 327.858 151.192 342.346C160.192 354.346 178.63 351.375 203.692 339.846C224.316 330.358 200.69 298.932 196.191 292.389C191.692 285.845 166.235 287.358 151.192 287.358Z" fill="#37946E"/>
<path d="M417.753 332.662C432.353 306.838 453.809 222.296 432.353 169.839C419.651 108.764 384.527 160.193 379.354 189.838C360.854 295.838 297.302 307.999 311.853 332.662C335.853 373.338 400.589 363.021 417.753 332.662Z" fill="#37946E"/>
<path d="M189 3C181.5 5 158.833 8 155 11C143.333 14.3333 122.2 22.7 131 29.5C142 38 138 71.5 187 52.5C236 33.5 235.5 38 249.5 44.5C263.5 51 288 78 306.5 68.5C325 59 344.705 72.2687 347.5 55.5C350 40.5 346.5 37.5 337 32C327.5 27.3333 301.5 12.5 267 4.99997C230.164 -3.0078 196.5 0.99999 189 3Z" fill="#C5E0FF"/>
<path d="M245.792 448.074C253.383 446.456 276.173 444.608 280.153 441.806C291.974 439.068 301.944 428.737 293.5 421.5C282.945 412.454 274.5 393.5 258 407C217.326 440.28 214.153 405.701 200.5 398.5C186.848 391.299 150.718 368.155 131.761 376.705C112.803 385.256 93.7954 371.006 90.1547 387.612C86.9178 402.376 89.2064 404.063 99.266 411.477L99.4507 411.614C109.667 419.144 133.917 432.887 167.993 442.125C204.376 451.988 238.2 449.691 245.792 448.074Z" fill="#C5E0FF"/>
<defs>
<radialGradient id="paint0_radial_0_1" cx="0" cy="0" r="1" gradientUnits="userSpaceOnUse" gradientTransform="translate(444 250) rotate(-173.174) scale(534.287)">
<stop stop-color="#485CD7"/>
<stop offset="0.0458879" stop-color="#5B6EE1"/>
<stop offset="0.386" stop-color="#6073E7"/>
<stop offset="0.621" stop-color="#7C8CED"/>
<stop offset="1" stop-color="#A5B1FF"/>
</radialGradient>
</defs>
</svg>
